<?xml version="1.0" encoding="UTF-8" standalone="no"?>
<!-- Created with Inkscape (http://www.inkscape.org/) -->

<svg
   xmlns:dc="http://purl.org/dc/elements/1.1/"
   xmlns:cc="http://creativecommons.org/ns#"
   xmlns:rdf="http://www.w3.org/1999/02/22-rdf-syntax-ns#"
   xmlns:svg="http://www.w3.org/2000/svg"
   xmlns="http://www.w3.org/2000/svg"
   version="1.1"
   width="200"
   height="200"
   id="svg4103">
  <defs
     id="defs4105" />
  <metadata
     id="metadata4108">
    <rdf:RDF>
      <cc:Work
         rdf:about="">
        <dc:format>image/svg+xml</dc:format>
        <dc:type
           rdf:resource="http://purl.org/dc/dcmitype/StillImage" />
        <dc:title></dc:title>
      </cc:Work>
    </rdf:RDF>
  </metadata>
  <g
     transform="matrix(5.4972988,0,0,6.2460663,12.818376,0.12492107)"
     id="g3051">
    <path
       d="m 15.586297,0.00133333 c 0.137192,-0.003 0.275658,0 0.413711,0 C 24.834343,0.00133333 32,6.3662633 32,14.223833 c 0,6.13871 -4.372629,11.3702 -10.49896,13.36428 l 1.067766,-5.66022 c 0.317473,-0.14663 0.584487,-0.32272 0.900073,-0.49111 0.231525,-0.13821 0.456623,-0.2799 0.676453,-0.43159 0.219837,-0.15169 0.429915,-0.31171 0.63732,-0.47624 0.207393,-0.16451 0.409549,-0.33427 0.603771,-0.51095 0.194203,-0.17668 0.384355,-0.36247 0.564628,-0.55064 0.180295,-0.18818 0.354311,-0.3814 0.519927,-0.58041 0.165616,-0.19901 0.319413,-0.40099 0.469606,-0.61017 0.150196,-0.2092 0.296435,-0.42621 0.430465,-0.6449 0.134026,-0.2187 0.257449,-0.44216 0.374565,-0.66971 0.117114,-0.22755 0.224788,-0.45877 0.324246,-0.6945 0.09946,-0.23573 0.192873,-0.47606 0.273929,-0.71932 0.08107,-0.24325 0.150521,-0.48903 0.212448,-0.73914 0.06191,-0.25013 0.114503,-0.50269 0.15654,-0.759 0.04202,-0.25632 0.07365,-0.51699 0.09504,-0.77884 0.02139,-0.26185 0.03353,-0.52204 0.03353,-0.78877 0,-5.9571797 -5.428055,-10.7946097 -12.125791,-10.7946097 -6.697716,0 -12.1313676,4.83743 -12.1313676,10.7946097 0,3.71665 2.1170569,6.9856 5.3333244,8.92442 1.4045562,0.88504 4.4144762,-5.54068 3.9077652,-5.68008 l -0.497553,0.15875 c 0.0452,-0.92557 -0.145309,-1.179 0.452813,-1.45847 0,0 -4.0996849,1.90429 -4.539472,1.23028 -0.3055672,-0.46831 3.902175,-3.4775 3.902175,-3.4775 0,0 -0.43892,-3.0544897 -3.3543029,-4.3555497 -0.025472,-0.36585 1.1183449,-0.35176 1.5317969,-0.34229 3.099464,0.0711 5.847652,2.41589 5.847652,2.41589 0,0 5.068235,-2.22577 5.640816,-1.72138 0.569725,0.50188 -3.969244,3.7354497 -3.969244,3.7354497 0.37827,0.3364 0.903239,0.79342 1.341708,1.15089 l -0.65967,0.47624 c 0.204774,0.4772 0.477871,0.68047 0.771479,1.21042 0.09248,0.1669 -0.471683,0.63181 -0.760303,0.83341 1.278224,0.12925 1.607682,-1.13304 2.057295,-1.57752 0.235359,-0.31027 0.620613,0.0306 0.676454,-0.38694 0.09491,-0.70956 0.05185,-1.05722 -0.07266,-1.23523 l 0.729328,0.09315 0.746561,0.09536 c -0.16485,0.12236 -0.404081,0.85916 -0.436057,1.26995 0.3895,0.0607 0.115119,0.0351 0.245978,0.0744 0.275665,0.0716 0.478325,0.19828 0.251573,0.49608 -0.294699,0.38702 -0.10514,1.18681 -0.486377,1.18561 l -0.273945,0.01 -0.832976,6.29025 -0.0055,0.0348 -0.916841,5.74457 c -0.0055,0.002 -0.01127,0.003 -0.0168,0.005 l -0.240379,1.61225 -0.430485,2.70361 c -0.464701,0.0259 -0.827044,-0.23781 -0.793832,-0.88302 l 0.692521,-5.04653 c 0.130383,-0.81803 0.20749,-1.39837 0.03217,-1.92043 0.144682,1.8206 -1.502751,3.77252 -2.379502,4.23359 -2.178599,0.85304 -9.4185227,0.78987 -14.1327806,-3.41797 0.8358541,-0.37072 3.1568211,-0.93145 4.3494126,-1.87516 -1.1585628,0.64444 -3.0643446,1.11678 -3.9301233,0.88797 C 1.6647967,21.430223 0,18.001723 0,14.223863 0,6.4890733 6.9428021,0.19606333 15.586312,0.00136333 z"
       id="path4005-1"
       style="fill:#000000;fill-opacity:1;stroke:none" />
    <path
       d="m 26.41305,10.26018 a 1.7270072,1.7270072 0 1 1 -3.454014,0 1.7270072,1.7270072 0 1 1 3.454014,0 z"
       transform="matrix(0.85294123,0,0,0.38235296,1.7509106,8.419738)"
       id="path2995"
       style="fill:#000000;fill-opacity:1;fill-rule:nonzero;stroke:none" />
  </g>
</svg>
